<svg width="16" height="16" viewBox="0 0 16 16" fill="none" xmlns="http://www.w3.org/2000/svg">
<path d="M12.2419 2.34306C12.6325 1.95254 13.2665 1.95254 13.657 2.34306C14.0472 2.7335 14.0471 3.36663 13.657 3.75713L9.41382 7.99931L13.657 12.2425C14.0472 12.6329 14.0471 13.266 13.657 13.6565C13.2665 14.0471 12.6325 14.0471 12.2419 13.6565L7.99976 9.41435L3.75757 13.6565C3.36705 14.0471 2.73306 14.0471 2.34253 13.6565C1.95236 13.266 1.95221 12.6329 2.34253 12.2425L6.58472 7.99931L2.34253 3.75713C1.95228 3.36661 1.95218 2.73352 2.34253 2.34306C2.73298 1.95262 3.36605 1.95278 3.75659 2.34306L7.99878 6.58525L12.2419 2.34306Z" fill="currentColor"/>
</svg>
